<svg width="247" height="208" viewBox="0 0 247 208" fill="none" xmlns="http://www.w3.org/2000/svg">
<path d="M156.413 147.702C156.31 148.236 156.256 148.605 156.26 148.808C156.287 154.716 156.306 158.112 156.31 158.996C156.313 159.852 156.098 160.429 155.257 160.782C153.617 161.473 151.973 161.443 150.325 160.694C149.526 160.329 149.43 159.825 149.43 158.988C149.487 131.111 149.514 107.107 149.518 86.9778C149.518 85.5795 149.553 78.35 149.618 65.2894C149.637 62.0358 149.618 55.9472 149.568 47.0198C149.564 46.1171 149.58 45.3911 149.622 44.8418C149.652 44.4077 149.964 44.0351 150.559 43.724C151.612 43.1708 152.814 42.9442 154.17 43.0479C155.184 43.1247 156.44 43.4704 156.371 44.6613C156.356 44.957 156.348 45.1184 156.348 45.1414C156.452 59.6925 156.463 73.8057 156.383 87.481C156.371 89.152 156.321 90.5771 156.229 91.7603C156.198 92.1598 156.167 97.3558 156.344 96.9947C156.786 96.1035 157.416 95.6247 157.988 94.8526C160.235 91.8217 162.967 89.3133 166.309 87.1967C169.455 85.203 172.632 83.8355 175.839 83.0941C179.346 82.2836 182.93 81.9878 186.591 82.2145C191.75 82.5333 196.582 84.1159 201.085 86.9547C205.821 89.9395 209.566 93.8423 212.317 98.6632C214.011 101.633 215.34 105.017 216.296 108.808C218.574 119.083 218.382 123.116 216.604 133.355C215.64 137.45 214.118 141.368 212.032 145.113C208.556 151.351 203.524 156.069 196.932 159.261C191.723 161.781 185.385 162.461 179.515 161.819C176.719 161.512 174.226 160.947 172.036 160.129C165.617 157.728 160.447 153.579 156.525 147.683C156.471 147.602 156.432 147.606 156.413 147.702ZM209.574 131.43C211.276 122.732 211.546 120.235 209.482 111.19C208.445 106.646 206.858 102.766 204.307 99.1703C200.539 93.8576 195.522 90.5618 189.257 89.2787C183.161 88.0303 177.595 88.7102 172.559 91.3147C166.013 94.6989 159.963 100.291 157.497 107.558C156.728 110.824 157.22 107.859 156.782 110.817C156.536 112.488 156.406 114.636 156.394 117.267C156.383 120.04 156.383 122.199 156.398 123.74C156.444 128.895 157.881 136.841 159.801 141.555C162.344 147.793 166.289 149.872 172.197 152.957C175.659 154.766 179.112 155.539 183.019 155.577C188.877 155.631 194.059 153.856 198.565 150.253C201.365 148.021 203.647 145.344 205.414 142.22C207.323 138.852 208.71 135.252 209.574 131.43Z" fill="white"/>
<path d="M131.018 94.2441C130.968 94.2441 130.945 94.3056 130.983 94.3402C133.83 96.8793 135.889 99.8141 137.16 103.145C139.649 109.663 139.838 116.201 137.729 122.759C136.438 126.769 133.634 130.783 130.23 133.434C127.115 135.858 123.877 137.54 120.515 138.474C117.984 139.177 114.746 139.565 110.804 139.645C108.185 139.695 106.41 139.803 105.48 139.964C102.914 140.414 100.517 141.305 98.2855 142.638C95.0664 144.558 92.2699 148.4 93.6144 152.222C94.2175 153.939 95.2277 155.295 96.6491 156.29C99.4917 158.28 103.686 159.394 107.048 159.805C108.196 159.947 110.029 159.943 112.537 159.797C116.766 159.551 120.85 159.482 125.156 159.909C130.703 160.454 136.899 162.417 140.994 166.324C145.085 170.223 147.24 175.159 147.459 181.132C147.563 184.032 147.036 186.752 145.872 189.291C144.463 192.372 142.507 195.084 140.007 197.427C137.295 199.966 134.252 201.983 130.879 203.481C126.988 205.214 123.112 206.358 119.252 206.915C113.689 207.718 108.062 207.776 102.369 207.081C96.1535 206.32 90.4376 204.411 85.2248 201.353C80.7765 198.745 77.3961 195.203 75.3179 190.486C72.8787 184.947 74.0311 178.382 77.5229 173.653C79.409 171.102 81.902 168.947 85.002 167.192C88.3555 165.294 91.7206 163.911 95.1048 163.047C95.2508 163.012 95.2585 162.959 95.1279 162.886C92.4581 161.43 90.4952 159.97 89.2314 158.51C87.691 156.732 86.6653 154.573 86.1583 152.041C85.2402 147.455 87.472 142.73 90.96 139.745C92.001 138.854 93.2725 137.947 94.7783 137.025C95.1471 136.799 95.4736 136.657 95.7617 136.599C96.1113 136.526 96.1266 136.419 95.8001 136.273C90.9177 134.071 87.0572 130.618 84.2145 125.912C82.8009 123.573 81.8483 121.072 81.3604 118.403C80.3424 112.84 80.8956 106.467 83.5807 101.343C86.4963 95.7807 90.8601 91.728 96.6644 89.1812C97.5172 88.8086 98.6312 88.3899 100.006 87.9251C101.286 87.491 102.434 87.1875 103.452 87.0147C108.058 86.2195 112.698 86.2426 117.366 87.0877C118.921 87.3681 120.396 87.8291 121.795 88.4744C122.033 88.582 122.29 88.6396 122.551 88.6396C127.906 88.6127 133.227 88.1901 138.508 87.3681C138.904 87.3028 139.181 87.4603 139.331 87.8329C139.553 88.3861 139.718 88.9469 139.822 89.5193C140.249 91.8471 138.566 93.5489 136.292 93.86C134.609 94.0905 132.85 94.2172 131.018 94.2441ZM109.172 133.173C117.028 133.553 124.365 130.945 128.943 124.36C133.154 118.306 133.273 109.863 129.681 103.675C126.658 98.4697 121.66 94.997 115.856 93.641C114.492 93.3222 112.91 93.1225 111.116 93.0341C109.318 92.9458 107.728 92.9957 106.337 93.1801C100.429 93.9676 95.1202 96.9408 91.6053 101.831C87.4336 107.643 86.7345 116.059 90.3415 122.49C94.2636 129.485 101.312 132.792 109.172 133.173ZM82.2401 188.119C83.7267 191.742 87.1263 194.654 90.549 196.371C94.1752 198.188 98.0627 199.444 102.208 200.139C105.861 200.754 109.952 200.923 114.485 200.642C121.56 200.204 129.063 197.85 134.498 193.094C137.951 190.075 139.895 186.422 140.337 182.139C140.487 180.679 140.425 179.319 140.156 178.055C139.868 176.699 139.346 175.412 138.589 174.202C136.058 170.134 132.159 168.24 127.584 167.069C125.886 166.635 123.938 166.347 121.741 166.208C115.26 165.805 109.114 166.116 103.302 167.149C102.837 167.23 102.204 167.403 101.393 167.664C98.7003 168.529 96.1958 169.377 93.8794 170.219C90.9562 171.275 88.2672 172.904 85.8164 175.101C81.9558 178.562 80.1888 183.126 82.2401 188.119Z" fill="white"/>
<path d="M219.457 147.435C219.561 147.162 219.496 147.112 219.261 147.285C218.163 148.1 216.13 149.582 213.165 151.733C211.448 152.978 210.192 154.638 209.4 156.716C209.024 157.707 208.909 158.729 209.051 159.777C209.062 159.854 209.155 160.423 209.32 161.479C209.347 161.644 209.166 161.767 209.02 161.679C208.571 161.406 208.187 161.091 207.868 160.726C205.705 158.248 205.079 155.448 205.982 152.317C206.347 151.054 207.069 149.386 207.975 148.345C210.764 145.153 213.803 144.078 218.013 142.818C220.383 142.111 222.357 140.789 223.936 138.849C224.159 138.581 224.255 138.619 224.228 138.969C223.975 142.076 223.698 144.807 223.398 147.166C223.237 148.438 222.845 150.266 222.227 152.644C221.339 156.066 219.553 159.497 216.465 161.149C215.531 161.652 212.938 162.624 211.955 161.955C211.767 161.829 211.625 161.602 211.525 161.275C211.121 159.942 211.175 158.702 211.686 157.557C212.27 156.259 213.096 155.002 214.16 153.785C216.515 151.092 218.128 149.213 218.996 148.153C219.227 147.873 219.38 147.631 219.457 147.435Z" fill="#047857"/>
<path d="M155.912 171.136C159.32 171.136 161.207 173.294 161.207 176.432V184.106H158.829V182.365C157.898 183.689 156.157 184.4 154.612 184.4C151.915 184.4 149.929 182.831 149.929 180.355C149.929 177.83 152.21 176.138 155.005 176.138C156.255 176.138 157.603 176.408 158.829 176.824V176.432C158.829 174.838 158.094 173.147 155.568 173.147C154.318 173.147 153.092 173.637 151.989 174.201L151.106 172.411C152.921 171.504 154.514 171.136 155.912 171.136ZM155.078 182.488C156.647 182.488 158.412 181.703 158.829 180.134V178.442C157.8 178.124 156.623 177.952 155.372 177.952C153.681 177.952 152.259 178.908 152.259 180.281C152.259 181.654 153.484 182.488 155.078 182.488ZM174.353 171.431H176.78V182.758C176.78 186.018 174.108 188.323 170.357 188.323C168.224 188.323 166.262 187.612 165.061 186.631L166.017 184.817C166.949 185.7 168.469 186.214 169.989 186.214C172.71 186.214 174.353 184.915 174.353 182.708V180.87C173.348 182.316 171.779 183.174 169.866 183.174C166.532 183.174 164.105 180.674 164.105 177.143C164.105 173.613 166.532 171.136 169.866 171.136C171.779 171.136 173.397 172.043 174.353 173.465V171.431ZM170.479 181.066C172.735 181.066 174.353 179.448 174.353 177.143C174.353 174.863 172.735 173.245 170.479 173.245C168.224 173.245 166.63 174.863 166.63 177.143C166.63 179.448 168.224 181.066 170.479 181.066ZM182.95 173.858C183.759 172.191 185.475 171.136 187.657 171.136V173.245C185.034 173.245 183.17 174.691 182.95 176.898V184.106H180.523V171.431H182.95V173.858ZM191.226 169.322C190.393 169.322 189.755 168.636 189.755 167.851C189.755 167.091 190.393 166.405 191.226 166.405C192.011 166.405 192.673 167.091 192.673 167.851C192.673 168.636 192.011 169.322 191.226 169.322ZM190 184.106V171.431H192.428V184.106H190ZM201.872 181.826L202.755 183.493C202.068 184.057 201.136 184.4 200.229 184.4C198.268 184.4 196.895 182.978 196.895 180.943V173.49H194.983V171.431H196.895V167.949H199.273V171.431H202.264V173.49H199.273V180.772C199.273 181.654 199.861 182.292 200.572 182.292C201.112 182.292 201.602 182.096 201.872 181.826ZM211.039 182.243C212.363 182.243 213.908 181.654 214.668 180.87L216.188 182.439C215.06 183.64 212.853 184.4 211.064 184.4C207.533 184.4 204.542 181.63 204.542 177.731C204.542 173.931 207.361 171.136 210.867 171.136C214.741 171.136 216.972 174.078 216.972 178.614H206.994C207.312 180.723 208.857 182.243 211.039 182.243ZM210.965 173.294C209.004 173.294 207.41 174.618 207.018 176.677H214.619C214.349 174.716 213.148 173.294 210.965 173.294ZM225.768 184.4C222.164 184.4 219.099 181.36 219.099 177.756C219.099 174.152 222.164 171.136 225.792 171.136C227.607 171.136 229.249 171.896 230.451 173.098L228.808 174.618C228.048 173.76 226.945 173.245 225.768 173.245C223.463 173.245 221.551 175.304 221.551 177.756C221.551 180.232 223.463 182.292 225.792 182.292C226.969 182.292 228.097 181.752 228.881 180.87L230.524 182.365C229.298 183.616 227.656 184.4 225.768 184.4ZM239.57 171.136C242.365 171.136 244.326 173.171 244.326 176.04V184.106H241.948V176.457C241.948 174.569 240.746 173.245 239.03 173.245C237.118 173.245 235.524 174.593 235.524 176.236V184.106H233.122V166.968H235.524V173.318C236.284 172.043 237.829 171.136 239.57 171.136Z" fill="white"/>
<path d="M136.538 75.261C138.23 75.3968 139.719 74.1352 139.78 72.4391C140.261 59.1337 136.933 45.9435 130.155 34.4345C122.856 22.0413 111.913 12.2008 98.8168 6.2546C85.7208 0.308403 71.1096 -1.45406 56.9753 1.2075C42.841 3.86907 29.8715 10.8251 19.8352 21.1273C9.79887 31.4294 3.18412 44.5763 0.892854 58.7753C-1.39841 72.9743 0.745305 87.5345 7.03173 100.471C13.3181 113.407 23.4413 124.089 36.021 131.062C47.7032 137.536 60.9759 140.519 74.2641 139.69C75.9581 139.585 77.1804 138.064 77.0004 136.376L76.1695 128.584C75.9895 126.896 74.4753 125.683 72.7803 125.77C62.3552 126.305 51.9653 123.912 42.7994 118.832C32.7356 113.254 24.6371 104.708 19.608 94.3591C14.5788 84.0102 12.8639 72.362 14.6969 61.0028C16.5299 49.6436 21.8217 39.1261 29.8507 30.8844C37.8798 22.6427 48.2554 17.0778 59.5628 14.9486C70.8703 12.8193 82.5592 14.2293 93.036 18.9863C103.513 23.7432 112.268 31.6157 118.107 41.5302C123.425 50.5602 126.088 60.884 125.826 71.3195C125.783 73.0162 127.035 74.4982 128.727 74.634L136.538 75.261Z" fill="url(#paint0_angular_65_15678)"/>
<defs>
<radialGradient id="paint0_angular_65_15678" cx="0" cy="0" r="1" gradientUnits="userSpaceOnUse" gradientTransform="translate(69.9129 69.9129) rotate(90) scale(69.9129)">
<stop stop-color="#047857"/>
<stop offset="0.147598" stop-color="#047857"/>
<stop offset="0.458802" stop-color="#60B355"/>
<stop offset="0.624505" stop-color="#60B355"/>
<stop offset="0.748218" stop-color="#3CFCA0" stop-opacity="0.9"/>
</radialGradient>
</defs>
</svg>
