<svg width="103" height="32" viewBox="0 0 103 32" fill="none" xmlns="http://www.w3.org/2000/svg">
<path d="M20.195 14.518C20.1873 14.518 20.1838 14.5275 20.1897 14.5328C20.6282 14.924 20.9454 15.3761 21.1412 15.8891C21.5247 16.8933 21.5537 17.9005 21.2288 18.9106C21.03 19.5284 20.598 20.1468 20.0737 20.5551C19.5938 20.9285 19.095 21.1877 18.5772 21.3315C18.1872 21.4398 17.6884 21.4995 17.0812 21.5119C16.6777 21.5196 16.4043 21.5362 16.2611 21.5611C15.8658 21.6303 15.4965 21.7676 15.1527 21.9729C14.6568 22.2688 14.226 22.8605 14.4331 23.4493C14.5261 23.7139 14.6817 23.9227 14.9006 24.076C15.3385 24.3825 15.9847 24.5541 16.5025 24.6175C16.6794 24.6394 16.9617 24.6388 17.3481 24.6163C17.9996 24.5784 18.6287 24.5678 19.292 24.6334C20.1465 24.7175 21.101 25.0198 21.7318 25.6217C22.362 26.2223 22.694 26.9827 22.7277 27.9029C22.7437 28.3496 22.6626 28.7686 22.4833 29.1597C22.2662 29.6343 21.965 30.0521 21.5797 30.4131C21.162 30.8042 20.6933 31.1149 20.1737 31.3457C19.5743 31.6126 18.9772 31.7889 18.3825 31.8747C17.5256 31.9984 16.6587 32.0073 15.7817 31.9001C14.8243 31.783 13.9438 31.4889 13.1408 31.0178C12.4555 30.616 11.9348 30.0705 11.6146 29.3438C11.2389 28.4905 11.4164 27.4792 11.9543 26.7507C12.2448 26.3578 12.6289 26.0258 13.1064 25.7554C13.623 25.4631 14.1414 25.25 14.6627 25.1169C14.6852 25.1116 14.6864 25.1033 14.6663 25.092C14.255 24.8678 13.9526 24.6429 13.758 24.418C13.5207 24.1441 13.3627 23.8115 13.2846 23.4215C13.1431 22.715 13.4869 21.9871 14.0242 21.5273C14.1846 21.39 14.3805 21.2504 14.6124 21.1084C14.6693 21.0735 14.7196 21.0516 14.7639 21.0427C14.8178 21.0314 14.8202 21.0149 14.7699 20.9924C14.0177 20.6533 13.423 20.1213 12.9851 19.3964C12.7674 19.0361 12.6206 18.6508 12.5455 18.2396C12.3886 17.3827 12.4739 16.401 12.8875 15.6116C13.3366 14.7547 14.0089 14.1304 14.903 13.7381C15.0344 13.6807 15.206 13.6162 15.4178 13.5446C15.6149 13.4777 15.7918 13.431 15.9486 13.4044C16.6581 13.2819 17.373 13.2854 18.0919 13.4156C18.3316 13.4588 18.5588 13.5298 18.7742 13.6292C18.8109 13.6458 18.8506 13.6547 18.8908 13.6547C19.7157 13.6505 20.5353 13.5854 21.3489 13.4588C21.4099 13.4487 21.4525 13.473 21.4756 13.5304C21.5099 13.6156 21.5353 13.702 21.5513 13.7902C21.617 14.1488 21.3578 14.4109 21.0075 14.4589C20.7483 14.4944 20.4773 14.5139 20.195 14.518ZM16.8297 20.5148C18.0399 20.5734 19.1701 20.1716 19.8755 19.1574C20.524 18.2248 20.5424 16.9241 19.9891 15.9708C19.5234 15.169 18.7535 14.634 17.8594 14.4251C17.6493 14.376 17.4055 14.3452 17.1292 14.3316C16.8522 14.318 16.6072 14.3257 16.393 14.3541C15.4829 14.4754 14.6651 14.9334 14.1237 15.6867C13.481 16.5821 13.3733 17.8786 13.929 18.8692C14.5332 19.9468 15.619 20.4563 16.8297 20.5148ZM12.681 28.9793C12.91 29.5373 13.4337 29.9858 13.9609 30.2503C14.5195 30.5302 15.1184 30.7237 15.7569 30.8309C16.3196 30.9255 16.9499 30.9516 17.6481 30.9084C18.7381 30.8409 19.8938 30.4782 20.7312 29.7456C21.2631 29.2805 21.5626 28.7177 21.6306 28.0579C21.6537 27.833 21.6442 27.6236 21.6028 27.4289C21.5584 27.22 21.478 27.0217 21.3614 26.8353C20.9714 26.2087 20.3708 25.9169 19.666 25.7365C19.4045 25.6696 19.1044 25.6252 18.7659 25.6039C17.7677 25.5418 16.8209 25.5897 15.9255 25.7489C15.8539 25.7613 15.7563 25.7879 15.6314 25.8282C15.2166 25.9613 14.8308 26.0921 14.474 26.2217C14.0237 26.3844 13.6094 26.6353 13.2319 26.9738C12.6372 27.507 12.365 28.21 12.681 28.9793Z" fill="white"/>
<path d="M23.722 7.48165C23.8699 7.49283 24.0534 7.54373 24.0433 7.717C24.0412 7.75874 24.0395 7.782 24.0394 7.78634C24.0546 9.90362 24.0561 11.9576 24.0443 13.9475C24.0426 14.1904 24.0353 14.3975 24.0219 14.5695C24.0174 14.6277 24.0137 15.3838 24.0394 15.3313C24.1038 15.2019 24.1953 15.1319 24.2787 15.0197C24.6062 14.5789 25.0045 14.2144 25.4916 13.9065C25.9503 13.6164 26.4136 13.4167 26.8812 13.3088C27.3925 13.1909 27.915 13.1479 28.4486 13.1809C29.2007 13.2273 29.9056 13.4573 30.5619 13.8703C31.2524 14.3046 31.7986 14.8729 32.1996 15.5744C32.4466 16.0065 32.6402 16.4993 32.7797 17.051C33.1117 18.5457 33.0839 19.1326 32.8246 20.6223C32.802 20.7181 32.7762 20.813 32.7494 20.9074C32.515 21.0702 32.2908 21.2673 32.0736 21.5158H32.0726C31.8216 21.8042 31.6392 22.2373 31.5492 22.549C31.4742 22.8092 31.4398 23.0625 31.4457 23.3078C31.0314 23.7493 30.536 24.1117 29.9564 24.3918C29.197 24.7584 28.2731 24.8572 27.4174 24.7639C27.0096 24.7192 26.6458 24.6368 26.3265 24.5178C25.391 24.1685 24.6375 23.565 24.0658 22.7072C24.058 22.6955 24.052 22.6962 24.0492 22.7102C24.0341 22.7878 24.0262 22.8417 24.0267 22.8713C24.0307 23.7307 24.033 24.2252 24.0336 24.3537C24.034 24.4781 24.0027 24.5621 23.8802 24.6135C23.6412 24.714 23.4016 24.7088 23.1615 24.5998C23.0451 24.5467 23.0306 24.4736 23.0306 24.3518C23.039 20.2957 23.0428 16.803 23.0433 13.8742C23.0433 13.6708 23.0485 12.6184 23.058 10.718C23.0608 10.2445 23.0584 9.35845 23.0511 8.05978C23.0506 7.92869 23.0528 7.82322 23.059 7.74337C23.0634 7.68021 23.1089 7.62556 23.1957 7.58029C23.3491 7.49985 23.5244 7.46657 23.722 7.48165ZM28.8373 14.2092C27.9485 14.0276 27.1369 14.1261 26.4027 14.5051C25.4486 14.9975 24.567 15.8111 24.2074 16.8684C24.0954 17.3435 24.1668 16.9126 24.1029 17.343C24.0671 17.5861 24.0479 17.8986 24.0463 18.2815C24.0446 18.6848 24.045 18.9988 24.0472 19.2229C24.054 19.973 24.2633 21.1298 24.5433 21.8156C24.9141 22.7231 25.4888 23.0261 26.35 23.4748C26.8546 23.7381 27.3585 23.8501 27.9281 23.8557C28.7821 23.8635 29.5378 23.6055 30.1947 23.0813C30.6029 22.7566 30.9351 22.3667 31.1927 21.9123C31.4711 21.4221 31.6732 20.8982 31.7992 20.342C32.0473 19.0765 32.0875 18.7128 31.7865 17.3967C31.6353 16.7357 31.4033 16.1717 31.0316 15.6486C30.4822 14.8756 29.7507 14.3959 28.8373 14.2092Z" fill="white"/>
<path d="M35.1127 21.5772C35.1365 21.5144 35.1215 21.503 35.0676 21.5427C34.815 21.73 34.3476 22.071 33.6656 22.5658C33.2707 22.852 32.9818 23.2337 32.7998 23.7116C32.7132 23.9395 32.6867 24.1745 32.7194 24.4157C32.7221 24.4334 32.7433 24.5641 32.7812 24.8071C32.7874 24.8451 32.7459 24.8733 32.7123 24.853C32.609 24.7903 32.5206 24.7179 32.4473 24.6339C31.9499 24.0641 31.8059 23.4201 32.0135 22.7C32.0975 22.4094 32.2635 22.026 32.472 21.7865C33.1134 21.0524 33.8122 20.805 34.7805 20.5153C35.3256 20.3527 35.7797 20.0488 36.1428 19.6026C36.194 19.5408 36.2161 19.5496 36.2099 19.63C36.1516 20.3447 36.088 20.9729 36.0191 21.5153C35.982 21.8078 35.8919 22.2283 35.7497 22.7751C35.5456 23.5623 35.1348 24.3512 34.4245 24.7311C34.2098 24.8468 33.6135 25.0704 33.3873 24.9166C33.344 24.8875 33.3113 24.8354 33.2884 24.7603C33.1956 24.4537 33.208 24.1684 33.3255 23.9051C33.4597 23.6065 33.6497 23.3176 33.8944 23.0375C34.436 22.4182 34.807 21.9862 35.0067 21.7424C35.0597 21.6779 35.095 21.6222 35.1127 21.5772Z" fill="#08805C"/>
<path d="M41.8288 24.3984C40.8474 24.3984 39.967 24.1747 39.1877 23.7273C38.4228 23.2654 37.8166 22.6449 37.3692 21.8655C36.9218 21.0862 36.6981 20.2058 36.6981 19.2244C36.6981 18.2431 36.9218 17.3627 37.3692 16.5834C37.8166 15.7896 38.4228 15.1618 39.1877 14.7C39.9526 14.2381 40.8185 14.0072 41.7855 14.0072C42.5504 14.0072 43.2359 14.1515 43.842 14.4402C44.4626 14.7144 44.975 15.1113 45.3791 15.6308C45.7976 16.1504 46.0862 16.771 46.245 17.4926V20.8914C46.0718 21.613 45.776 22.2408 45.3574 22.7748C44.9533 23.2943 44.4482 23.6984 43.842 23.9871C43.2503 24.2613 42.5792 24.3984 41.8288 24.3984ZM41.9154 23.7706C43.1565 23.7706 44.1451 23.3593 44.8812 22.5366C45.6172 21.6996 45.9852 20.5955 45.9852 19.2244C45.9852 18.3008 45.812 17.4998 45.4657 16.8215C45.1337 16.1288 44.6575 15.5948 44.0369 15.2195C43.4163 14.8299 42.6947 14.635 41.8721 14.635C41.0061 14.635 40.234 14.8371 39.5557 15.2412C38.8918 15.6308 38.365 16.172 37.9754 16.8648C37.5857 17.5431 37.3909 18.3224 37.3909 19.2028C37.3909 20.0832 37.5857 20.8697 37.9754 21.5625C38.365 22.2408 38.899 22.782 39.5773 23.1861C40.2701 23.5757 41.0494 23.7706 41.9154 23.7706ZM45.9636 24.1819V21.5192L46.1584 19.0513L45.9636 16.6483V14.2237H46.6347V24.1819H45.9636ZM52.6716 28.6414C51.7191 28.6414 50.8532 28.461 50.0739 28.1002C49.2945 27.7394 48.6667 27.2199 48.1905 26.5415L48.6018 26.1302C48.9914 26.6931 49.5399 27.1477 50.247 27.4941C50.9542 27.8404 51.7696 28.0136 52.6933 28.0136C54.0788 28.0136 55.1756 27.6312 55.9838 26.8663C56.8064 26.1158 57.2178 25.0983 57.2178 23.8139V21.281L57.4126 18.943L57.2178 16.67V14.2237H57.8889V23.8139C57.8889 24.7808 57.6724 25.6251 57.2394 26.3467C56.8064 27.0683 56.1931 27.6312 55.3993 28.0353C54.62 28.4394 53.7108 28.6414 52.6716 28.6414ZM52.9964 24.1819C52.0294 24.1819 51.1635 23.9654 50.3986 23.5324C49.6481 23.085 49.0492 22.4789 48.6018 21.714C48.1688 20.9491 47.9523 20.0759 47.9523 19.0946C47.9523 18.1276 48.1688 17.2617 48.6018 16.4968C49.0347 15.7319 49.6265 15.1257 50.3769 14.6783C51.1418 14.2309 52.0005 14.0072 52.9531 14.0072C53.718 14.0072 54.4107 14.1515 55.0313 14.4402C55.6663 14.7144 56.1931 15.1113 56.6116 15.6308C57.0446 16.1504 57.3404 16.771 57.4992 17.4926V20.7182C57.326 21.4253 57.0229 22.0387 56.59 22.5583C56.1714 23.0778 55.6519 23.4819 55.0313 23.7706C54.4251 24.0448 53.7468 24.1819 52.9964 24.1819ZM53.083 23.5541C53.9056 23.5541 54.6272 23.3737 55.2478 23.0129C55.8828 22.6376 56.3735 22.1181 56.7199 21.4542C57.0662 20.7759 57.2394 19.9893 57.2394 19.0946C57.2394 18.2142 57.059 17.4421 56.6982 16.7782C56.3518 16.1143 55.8611 15.5948 55.2261 15.2195C54.6055 14.8299 53.8767 14.635 53.0397 14.635C52.1882 14.635 51.4305 14.8299 50.7666 15.2195C50.1027 15.5948 49.5832 16.1143 49.2079 16.7782C48.8327 17.4421 48.6451 18.207 48.6451 19.0729C48.6451 19.9388 48.8327 20.711 49.2079 21.3893C49.5976 22.0676 50.1244 22.6016 50.7882 22.9912C51.4521 23.3665 52.217 23.5541 53.083 23.5541ZM59.8127 24.1819V14.2237H60.4838V24.1819H59.8127ZM60.4838 18.0987L60.0292 17.9688C60.0292 16.6988 60.3611 15.7246 61.025 15.0463C61.7033 14.3536 62.5476 14.0072 63.5578 14.0072C64.0485 14.0072 64.5031 14.0938 64.9216 14.267C65.3546 14.4402 65.7515 14.7144 66.1123 15.0896L65.6577 15.5875C65.3546 15.2556 65.0227 15.0175 64.6619 14.8732C64.3155 14.7288 63.9114 14.6567 63.4496 14.6567C62.5692 14.6567 61.8548 14.9597 61.3064 15.5659C60.758 16.1576 60.4838 17.0019 60.4838 18.0987ZM66.6268 24.1819V14.2237H67.2979V24.1819H66.6268ZM66.9515 11.7342C66.7639 11.7342 66.6051 11.662 66.4752 11.5177C66.3454 11.3734 66.2804 11.2074 66.2804 11.0198C66.2804 10.8177 66.3454 10.6518 66.4752 10.5219C66.6051 10.392 66.7639 10.327 66.9515 10.327C67.1536 10.327 67.3195 10.392 67.4494 10.5219C67.5937 10.6518 67.6659 10.8177 67.6659 11.0198C67.6659 11.2074 67.5937 11.3734 67.4494 11.5177C67.3195 11.662 67.1536 11.7342 66.9515 11.7342ZM70.8565 24.1819V9.98066H71.5276V24.1819H70.8565ZM68.2154 14.8082V14.2237H74.147V14.8082H68.2154ZM79.1782 24.3984C78.1824 24.3984 77.2876 24.1747 76.4938 23.7273C75.7145 23.2654 75.0939 22.6449 74.6321 21.8655C74.1847 21.0718 73.961 20.177 73.961 19.1811C73.961 18.1998 74.1774 17.3194 74.6104 16.5401C75.0578 15.7607 75.664 15.1474 76.4289 14.7C77.2082 14.2381 78.0813 14.0072 79.0483 14.0072C79.9431 14.0072 80.7296 14.2093 81.4079 14.6134C82.1007 15.003 82.6419 15.5515 83.0316 16.2586C83.4212 16.9658 83.6161 17.7812 83.6161 18.7049C83.6161 18.7626 83.6088 18.8564 83.5944 18.9863C83.5944 19.1018 83.58 19.2533 83.5511 19.4409H74.4372V18.8131H83.1182L82.9233 18.9647C82.9811 18.1132 82.8512 17.3627 82.5337 16.7133C82.2161 16.0638 81.7543 15.5587 81.1482 15.1979C80.5565 14.8226 79.8493 14.635 79.0266 14.635C78.1607 14.635 77.3958 14.8299 76.7319 15.2195C76.0825 15.5948 75.5701 16.1215 75.1949 16.7998C74.8341 17.4637 74.6537 18.2431 74.6537 19.1379C74.6537 20.0615 74.8413 20.8697 75.2166 21.5625C75.6062 22.2552 76.1474 22.7964 76.8402 23.1861C77.5329 23.5757 78.3411 23.7706 79.2648 23.7706C79.9575 23.7706 80.5925 23.6407 81.1698 23.3809C81.7615 23.1211 82.2594 22.7315 82.6635 22.2119L83.1182 22.6665C82.6708 23.2005 82.1007 23.6262 81.4079 23.9438C80.7296 24.2468 79.9864 24.3984 79.1782 24.3984ZM89.3094 24.3984C88.3424 24.3984 87.4693 24.1675 86.6899 23.7056C85.925 23.2438 85.3117 22.616 84.8498 21.8222C84.4024 21.0285 84.1787 20.1409 84.1787 19.1595C84.1787 18.1925 84.4024 17.3194 84.8498 16.5401C85.3117 15.7607 85.925 15.1474 86.6899 14.7C87.4693 14.2381 88.3424 14.0072 89.3094 14.0072C90.031 14.0072 90.7021 14.1443 91.3227 14.4185C91.9577 14.6783 92.4989 15.0463 92.9463 15.5226L92.4917 15.9772C92.102 15.5587 91.6329 15.234 91.0845 15.003C90.5361 14.7577 89.9444 14.635 89.3094 14.635C88.4723 14.635 87.7146 14.8371 87.0363 15.2412C86.3724 15.6308 85.8457 16.1648 85.456 16.8431C85.0663 17.5215 84.8715 18.2936 84.8715 19.1595C84.8715 20.0399 85.0663 20.8264 85.456 21.5192C85.8457 22.2119 86.3724 22.7603 87.0363 23.1644C87.7146 23.5685 88.4723 23.7706 89.3094 23.7706C89.9588 23.7706 90.5578 23.6551 91.1062 23.4242C91.669 23.1789 92.1525 22.8397 92.5566 22.4067L93.0112 22.8613C92.5494 23.352 91.9938 23.7345 91.3443 24.0087C90.7093 24.2685 90.031 24.3984 89.3094 24.3984ZM101.738 24.1819V18.2286C101.738 17.1462 101.428 16.2731 100.807 15.6092C100.187 14.9453 99.3567 14.6134 98.3176 14.6134C97.6104 14.6134 96.9826 14.7721 96.4342 15.0896C95.9002 15.3927 95.4744 15.8112 95.1569 16.3452C94.8539 16.8792 94.7023 17.4998 94.7023 18.207L94.2477 17.9472C94.2477 17.1967 94.4281 16.5256 94.7889 15.9339C95.1641 15.3422 95.6621 14.8732 96.2826 14.5268C96.9176 14.1804 97.632 14.0072 98.4258 14.0072C99.2196 14.0072 99.9123 14.1876 100.504 14.5484C101.11 14.9092 101.579 15.4071 101.911 16.0422C102.243 16.6772 102.409 17.406 102.409 18.2286V24.1819H101.738ZM94.0312 24.1819V9.11473H94.7023V24.1819H94.0312Z" fill="white"/>
<g clip-path="url(#paint0_angular_54007_2_clip_path)" data-figma-skip-parse="true"><g transform="matrix(0 0.0107699 -0.0107699 0 10.7816 10.7699)"><foreignObject x="-1027.47" y="-1027.47" width="2054.95" height="2054.95"><div xmlns="http://www.w3.org/1999/xhtml" style="background:conic-gradient(from 90deg,rgba(4, 120, 87, 1) 0deg,rgba(4, 120, 87, 1) 53.1353deg,rgba(96, 179, 85, 1) 165.169deg,rgba(96, 179, 85, 1) 224.822deg,rgba(60, 252, 160, 0.9) 269.358deg,rgba(4, 120, 87, 1) 360deg);height:100%;width:100%;opacity:1"></div></foreignObject></g></g><path d="M21.0451 11.5937C21.3057 11.6147 21.535 11.4203 21.5445 11.159C21.6186 9.10938 21.1058 7.07746 20.0617 5.30454C18.9374 3.3954 17.2516 1.8795 15.2342 0.963503C13.2168 0.0475087 10.9659 -0.223994 8.7886 0.186012C6.61125 0.596019 4.61334 1.66758 3.06727 3.2546C1.52121 4.84161 0.502223 6.86684 0.14926 9.05416C-0.203703 11.2415 0.126531 13.4844 1.09494 15.4772C2.06334 17.47 3.62279 19.1156 5.56065 20.1896C7.36026 21.1871 9.40488 21.6466 11.4519 21.5189C11.7128 21.5026 11.9011 21.2683 11.8734 21.0083L11.7454 19.8079C11.7177 19.548 11.4844 19.3611 11.2233 19.3745C9.61736 19.4569 8.01683 19.0883 6.60484 18.3057C5.05455 17.4464 3.80699 16.13 3.03227 14.5357C2.25754 12.9415 1.99336 11.1472 2.27573 9.39731C2.5581 7.64745 3.37328 6.02727 4.61014 4.75765C5.84699 3.48804 7.44532 2.63079 9.1872 2.30279C10.9291 1.97478 12.7297 2.19198 14.3436 2.92478C15.9576 3.65757 17.3062 4.8703 18.2057 6.39761C19.0249 7.78866 19.4352 9.37901 19.3948 10.9866C19.3882 11.2479 19.5811 11.4762 19.8418 11.4972L21.0451 11.5937Z" data-figma-gradient-fill="{&#34;type&#34;:&#34;GRADIENT_ANGULAR&#34;,&#34;stops&#34;:[{&#34;color&#34;:{&#34;r&#34;:0.015686275437474251,&#34;g&#34;:0.47058823704719543,&#34;b&#34;:0.34117648005485535,&#34;a&#34;:1.0},&#34;position&#34;:0.0},{&#34;color&#34;:{&#34;r&#34;:0.015686275437474251,&#34;g&#34;:0.47058823704719543,&#34;b&#34;:0.34117648005485535,&#34;a&#34;:1.0},&#34;position&#34;:0.14759805798530579},{&#34;color&#34;:{&#34;r&#34;:0.37647059559822083,&#34;g&#34;:0.70196080207824707,&#34;b&#34;:0.33333334326744080,&#34;a&#34;:1.0},&#34;position&#34;:0.45880183577537537},{&#34;color&#34;:{&#34;r&#34;:0.37647059559822083,&#34;g&#34;:0.70196080207824707,&#34;b&#34;:0.33333334326744080,&#34;a&#34;:1.0},&#34;position&#34;:0.62450528144836426},{&#34;color&#34;:{&#34;r&#34;:0.23529411852359772,&#34;g&#34;:0.98823529481887817,&#34;b&#34;:0.62745100259780884,&#34;a&#34;:0.89999997615814209},&#34;position&#34;:0.74821799993515015}],&#34;stopsVar&#34;:[{&#34;color&#34;:{&#34;r&#34;:0.015686275437474251,&#34;g&#34;:0.47058823704719543,&#34;b&#34;:0.34117648005485535,&#34;a&#34;:1.0},&#34;position&#34;:0.0},{&#34;color&#34;:{&#34;r&#34;:0.015686275437474251,&#34;g&#34;:0.47058823704719543,&#34;b&#34;:0.34117648005485535,&#34;a&#34;:1.0},&#34;position&#34;:0.14759805798530579},{&#34;color&#34;:{&#34;r&#34;:0.37647059559822083,&#34;g&#34;:0.70196080207824707,&#34;b&#34;:0.33333334326744080,&#34;a&#34;:1.0},&#34;position&#34;:0.45880183577537537},{&#34;color&#34;:{&#34;r&#34;:0.37647059559822083,&#34;g&#34;:0.70196080207824707,&#34;b&#34;:0.33333334326744080,&#34;a&#34;:1.0},&#34;position&#34;:0.62450528144836426},{&#34;color&#34;:{&#34;r&#34;:0.23529411852359772,&#34;g&#34;:0.98823529481887817,&#34;b&#34;:0.62745100259780884,&#34;a&#34;:0.89999997615814209},&#34;position&#34;:0.74821799993515015}],&#34;transform&#34;:{&#34;m00&#34;:6.1017183025766000e-15,&#34;m01&#34;:-21.539762496948242,&#34;m02&#34;:21.551481246948242,&#34;m10&#34;:21.539762496948242,&#34;m11&#34;:1.3189301428836032e-15,&#34;m12&#34;:-1.3189301428836032e-15},&#34;opacity&#34;:1.0,&#34;blendMode&#34;:&#34;NORMAL&#34;,&#34;visible&#34;:true}"/>
<defs>
<clipPath id="paint0_angular_54007_2_clip_path"><path d="M21.0451 11.5937C21.3057 11.6147 21.535 11.4203 21.5445 11.159C21.6186 9.10938 21.1058 7.07746 20.0617 5.30454C18.9374 3.3954 17.2516 1.8795 15.2342 0.963503C13.2168 0.0475087 10.9659 -0.223994 8.7886 0.186012C6.61125 0.596019 4.61334 1.66758 3.06727 3.2546C1.52121 4.84161 0.502223 6.86684 0.14926 9.05416C-0.203703 11.2415 0.126531 13.4844 1.09494 15.4772C2.06334 17.47 3.62279 19.1156 5.56065 20.1896C7.36026 21.1871 9.40488 21.6466 11.4519 21.5189C11.7128 21.5026 11.9011 21.2683 11.8734 21.0083L11.7454 19.8079C11.7177 19.548 11.4844 19.3611 11.2233 19.3745C9.61736 19.4569 8.01683 19.0883 6.60484 18.3057C5.05455 17.4464 3.80699 16.13 3.03227 14.5357C2.25754 12.9415 1.99336 11.1472 2.27573 9.39731C2.5581 7.64745 3.37328 6.02727 4.61014 4.75765C5.84699 3.48804 7.44532 2.63079 9.1872 2.30279C10.9291 1.97478 12.7297 2.19198 14.3436 2.92478C15.9576 3.65757 17.3062 4.8703 18.2057 6.39761C19.0249 7.78866 19.4352 9.37901 19.3948 10.9866C19.3882 11.2479 19.5811 11.4762 19.8418 11.4972L21.0451 11.5937Z"/></clipPath></defs>
</svg>
